<?xml version="1.0" encoding="utf-8"?>
<!-- Generator: Adobe Illustrator 19.2.1, SVG Export Plug-In . SVG Version: 6.00 Build 0)  -->
<svg version="1.1" id="Layer_1" xmlns="http://www.w3.org/2000/svg" xmlns:xlink="http://www.w3.org/1999/xlink" x="0px" y="0px"
	 viewBox="0 0 421.3 26.9" style="enable-background:new 0 0 421.3 26.9;" xml:space="preserve">
<style type="text/css">
	.st0{clip-path:url(#SVGID_2_);fill:#231F20;}
</style>
<g>
	<defs>
		<rect id="SVGID_1_" y="0" width="421.3" height="26.9"/>
	</defs>
	<clipPath id="SVGID_2_">
		<use xlink:href="#SVGID_1_"  style="overflow:visible;"/>
	</clipPath>
	<path class="st0" d="M10.5,5.9c2.9,0,5.1,1,7.1,2.7c0.2,0.2,0.3,0.6,0,0.8l-0.8,0.8c-0.2,0.3-0.5,0.3-0.8,0C14.5,8.8,12.5,8,10.5,8
		c-4.6,0-8.1,3.9-8.1,8.4c0,4.5,3.5,8.4,8.1,8.4c2.5,0,4-1,5.6-2.2c0.3-0.2,0.5-0.2,0.7-0.1l0.9,0.8c0.2,0.2,0.2,0.6,0,0.8
		c-2,1.9-4.5,2.8-7.1,2.8C4.7,26.9,0,22.2,0,16.4S4.7,5.9,10.5,5.9"/>
	<path class="st0" d="M39.7,5.9c5.8,0,10.5,4.7,10.5,10.5c0,5.8-4.7,10.5-10.5,10.5c-5.8,0-10.5-4.6-10.5-10.5
		C29.3,10.6,33.9,5.9,39.7,5.9 M39.7,24.8c4.6,0,8.5-3.8,8.5-8.4c0-4.6-3.8-8.5-8.5-8.5c-4.6,0-8.4,3.8-8.4,8.5
		C31.3,21,35.1,24.8,39.7,24.8"/>
	<path class="st0" d="M72.5,5.9c2.9,0,5.1,1,7.1,2.7c0.2,0.2,0.3,0.6,0,0.8l-0.8,0.8c-0.2,0.3-0.5,0.3-0.8,0C76.5,8.8,74.5,8,72.5,8
		c-4.6,0-8.1,3.9-8.1,8.4c0,4.5,3.5,8.4,8.1,8.4c2.5,0,4-1,5.6-2.2c0.3-0.2,0.5-0.2,0.7-0.1l0.9,0.8c0.2,0.2,0.2,0.6,0,0.8
		c-2,1.9-4.5,2.8-7.1,2.8c-5.8,0-10.5-4.6-10.5-10.5S66.7,5.9,72.5,5.9"/>
	<path class="st0" d="M92.8,6.7c0-0.3,0.3-0.6,0.6-0.6h1.2c0.3,0,0.6,0.3,0.6,0.6V26c0,0.3-0.3,0.6-0.6,0.6h-1.2
		c-0.3,0-0.6-0.3-0.6-0.6V6.7z"/>
	<path class="st0" d="M109.8,6.4c0-0.3,0.3-0.5,0.6-0.5h0.7l13.1,16.4h0.1V6.7c0-0.3,0.2-0.6,0.6-0.6h1c0.3,0,0.6,0.3,0.6,0.6v19.6
		c0,0.3-0.3,0.5-0.6,0.5h-0.5L112,10.1h0V26c0,0.3-0.2,0.6-0.6,0.6h-1c-0.3,0-0.6-0.3-0.6-0.6V6.4z"/>
	<path class="st0" d="M138.3,25.8l8.9-19.6c0.1-0.2,0.2-0.3,0.5-0.3h0.3c0.3,0,0.4,0.1,0.5,0.3l8.8,19.6c0.2,0.4-0.1,0.8-0.5,0.8
		h-1.2c-0.3,0-0.4-0.2-0.5-0.3l-2.2-4.8h-10.3l-2.1,4.8c-0.1,0.1-0.2,0.3-0.5,0.3h-1.2C138.4,26.6,138.2,26.2,138.3,25.8
		 M152.2,19.6c-1.4-3.2-2.8-6.4-4.3-9.6h-0.2l-4.2,9.6H152.2z"/>
	<path class="st0" d="M167.9,23.5c0.2-0.2,0.3-0.4,0.4-0.5c0.3-0.4,0.6-0.6,1-0.3c0.2,0.2,2.3,2.2,4.9,2.2c2.4,0,3.9-1.5,3.9-3.2
		c0-2-1.8-3.2-5.1-4.6c-3.2-1.4-5.1-2.7-5.1-6c0-2,1.6-5.2,6.2-5.2c2.9,0,5,1.5,5,1.5c0.2,0.1,0.5,0.4,0.2,1
		c-0.1,0.2-0.2,0.4-0.4,0.6c-0.3,0.4-0.5,0.5-1,0.3c-0.2-0.1-2-1.3-3.8-1.3c-3.1,0-4,2-4,3.2c0,2,1.5,3.1,3.9,4.1
		c3.9,1.6,6.5,3.1,6.5,6.5c0,3-2.9,5.2-6.3,5.2c-3.4,0-5.8-2-6.1-2.4C167.9,24.3,167.6,24.1,167.9,23.5"/>
	<path class="st0" d="M212.2,15.7L212.2,15.7l-0.7-0.8c-1.1-1.2-2.1-2.5-2-4.3c0-2.2,1.6-4.7,5.2-4.7c3.1,0,4.9,2.1,4.9,4.5
		c0,2.6-2.6,4.5-4.3,5.6l4.8,4.8c0.8-1.5,1.2-3.3,1.2-5.2c0-0.6,0.2-0.7,0.7-0.7h0.7c0.6,0,0.6,0.4,0.6,0.7c0,2.2-0.6,4.6-1.7,6.6
		l2.8,2.8c0.3,0.4,0.6,0.7,0,1.3l-0.4,0.3c-0.4,0.3-0.8,0.4-1.2-0.1l-2.5-2.6c-1.6,1.8-3.7,2.9-6.4,2.9c-3.7,0-5.6-2.5-5.6-5.4
		C208.2,18.3,210.7,16.6,212.2,15.7 M213.9,25.1c2,0,3.7-1,5-2.5l-5.4-5.7c-1.3,0.8-3.3,2.3-3.3,4.6
		C210.2,23.6,211.8,25.1,213.9,25.1 M217.5,10.4c0-1.4-1.1-2.8-3.1-2.8c-1.9,0-3,1.4-3,3.1c-0.1,1.2,0.7,2.2,1.9,3.3l0.6,0.6
		C215.3,13.8,217.5,12.5,217.5,10.4"/>
	<path class="st0" d="M261.2,5.9c2.9,0,5.1,1,7.1,2.7c0.2,0.2,0.3,0.6,0,0.8l-0.8,0.8c-0.2,0.3-0.5,0.3-0.8,0
		c-1.5-1.3-3.6-2.2-5.6-2.2c-4.6,0-8.1,3.9-8.1,8.4c0,4.5,3.5,8.4,8.1,8.4c2.5,0,4-1,5.6-2.2c0.3-0.2,0.5-0.2,0.7-0.1l0.9,0.8
		c0.2,0.2,0.2,0.6,0,0.8c-2,1.9-4.5,2.8-7.1,2.8c-5.8,0-10.5-4.6-10.5-10.5S255.4,5.9,261.2,5.9"/>
	<path class="st0" d="M281.5,6.7c0-0.3,0.2-0.6,0.5-0.6h1.1c0.3,0,0.6,0.3,0.6,0.6v17.9h8.4c0.3,0,0.6,0.3,0.6,0.6V26
		c0,0.3-0.2,0.6-0.6,0.6h-10.1c-0.3,0-0.5-0.3-0.5-0.6V6.7z"/>
	<path class="st0" d="M313.3,5.9c5.8,0,10.5,4.7,10.5,10.5c0,5.8-4.7,10.5-10.5,10.5c-5.8,0-10.5-4.6-10.5-10.5
		C302.8,10.6,307.5,5.9,313.3,5.9 M313.3,24.8c4.6,0,8.4-3.8,8.4-8.4c0-4.6-3.8-8.5-8.4-8.5c-4.6,0-8.4,3.8-8.4,8.5
		C304.9,21,308.7,24.8,313.3,24.8 M310.7,3.1c-0.1-0.2,0-0.5,0.2-0.6l4.4-2.4c0.2-0.1,0.6-0.2,0.8,0.1l0.5,1
		c0.1,0.2,0.1,0.5-0.2,0.6l-4.7,1.9C311.2,4,311.1,4,311,3.7L310.7,3.1z"/>
	<path class="st0" d="M335.7,23.5c0.1-0.2,0.3-0.4,0.4-0.5c0.3-0.4,0.6-0.6,1-0.3c0.2,0.2,2.3,2.2,4.9,2.2c2.4,0,3.9-1.5,3.9-3.2
		c0-2-1.8-3.2-5.1-4.6c-3.2-1.4-5.1-2.7-5.1-6c0-2,1.6-5.2,6.2-5.2c2.9,0,5,1.5,5,1.5c0.2,0.1,0.5,0.4,0.2,1
		c-0.1,0.2-0.2,0.4-0.4,0.6c-0.3,0.4-0.5,0.5-1,0.3c-0.2-0.1-2-1.3-3.8-1.3c-3.1,0-4,2-4,3.2c0,2,1.5,3.1,3.9,4.1
		c3.9,1.6,6.5,3.1,6.5,6.5c0,3-2.9,5.2-6.3,5.2c-3.4,0-5.8-2-6.2-2.4C335.6,24.3,335.4,24.1,335.7,23.5"/>
	<path class="st0" d="M361.3,6.7c0-0.3,0.2-0.6,0.6-0.6h11.5c0.3,0,0.6,0.3,0.6,0.6v0.8c0,0.3-0.2,0.5-0.6,0.5h-9.8v7.1h8.4
		c0.3,0,0.6,0.3,0.6,0.6v0.8c0,0.3-0.3,0.6-0.6,0.6h-8.4v7.4h9.8c0.3,0,0.6,0.3,0.6,0.6V26c0,0.3-0.2,0.6-0.6,0.6h-11.5
		c-0.3,0-0.6-0.3-0.6-0.6V6.7z"/>
	<path class="st0" d="M390.2,8.1h-5.1c-0.3,0-0.6-0.3-0.6-0.5V6.7c0-0.3,0.2-0.6,0.6-0.6h12.4c0.3,0,0.6,0.3,0.6,0.6v0.8
		c0,0.3-0.2,0.5-0.6,0.5h-5.1V26c0,0.3-0.3,0.6-0.6,0.6h-1.1c-0.3,0-0.6-0.3-0.6-0.6V8.1z"/>
	<path class="st0" d="M408.7,23.5c0.1-0.2,0.3-0.4,0.4-0.5c0.3-0.4,0.6-0.6,1-0.3c0.2,0.2,2.3,2.2,4.9,2.2c2.4,0,3.9-1.5,3.9-3.2
		c0-2-1.8-3.2-5.1-4.6c-3.2-1.4-5.1-2.7-5.1-6c0-2,1.6-5.2,6.2-5.2c2.9,0,5,1.5,5,1.5c0.2,0.1,0.5,0.4,0.2,1
		c-0.1,0.2-0.2,0.4-0.4,0.6c-0.3,0.4-0.6,0.5-1,0.3c-0.2-0.1-2-1.3-3.8-1.3c-3.1,0-4,2-4,3.2c0,2,1.5,3.1,3.9,4.1
		c3.9,1.6,6.5,3.1,6.5,6.5c0,3-2.9,5.2-6.3,5.2c-3.4,0-5.8-2-6.2-2.4C408.7,24.3,408.4,24.1,408.7,23.5"/>
</g>
</svg>
