<?xml version="1.0" encoding="utf-8"?>
<!-- Generator: Adobe Illustrator 19.2.1, SVG Export Plug-In . SVG Version: 6.00 Build 0)  -->
<svg version="1.1" id="Layer_1" xmlns="http://www.w3.org/2000/svg" xmlns:xlink="http://www.w3.org/1999/xlink" x="0px" y="0px"
	 viewBox="0 0 25.8 27.6" style="enable-background:new 0 0 25.8 27.6;" xml:space="preserve">
<style type="text/css">
	
		.st0{clip-path:url(#SVGID_2_);fill:none;stroke:#FFFFFF;stroke-width:2;stroke-linecap:round;stroke-linejoin:round;stroke-miterlimit:10;}
</style>
<g>
	<defs>
		<rect id="SVGID_1_" y="0" width="25.8" height="27.6"/>
	</defs>
	<clipPath id="SVGID_2_">
		<use xlink:href="#SVGID_1_"  style="overflow:visible;"/>
	</clipPath>
	<path class="st0" d="M23.1,19.7c-0.8-0.7-1.6-1.5-2.6-2c-1.1-0.6-2.1-0.5-3,0.3c-0.5,0.4-1,0.9-1.5,1.4c-0.5,0.5-1.1,0.7-1.8,0.5
		c-0.8-0.2-1.5-0.7-2.1-1.2c-1.4-1.2-2.6-2.5-3.6-4c-0.5-0.8-1-1.6-1.2-2.5c-0.2-0.9,0.1-1.6,0.8-2.1c0.5-0.4,1.1-0.8,1.6-1.3
		c0.9-0.8,1-1.8,0.7-2.9c-0.4-1.1-1-2-1.7-2.9C8.3,2.4,7.9,2,7.5,1.6C6.8,0.9,5.9,0.8,5.2,1.4C4.5,1.9,3.9,2.4,3.3,3
		c-2,2-2.6,4.5-2.2,7.3C1.4,11.9,2,13.5,2.8,15c1.1,2,2.5,3.7,4,5.4c1.5,1.7,3.2,3.2,5.2,4.4c0.4,0.3,0.9,0.5,1.3,0.7
		c1.4,0.6,2.8,1,4.3,1c1,0,2-0.2,3-0.6c0.2-0.1,0.4-0.2,0.6-0.2c0.2-0.1,0.3-0.2,0.5-0.2c1-0.5,1.7-1.3,2.5-2.1
		c0.8-0.7,0.9-1.6,0.2-2.4C24,20.5,23.6,20.1,23.1,19.7z"/>
</g>
</svg>
