<?xml version="1.0" encoding="utf-8"?>
<!-- Generator: Adobe Illustrator 19.2.1, SVG Export Plug-In . SVG Version: 6.00 Build 0)  -->
<svg version="1.1" id="Layer_2" xmlns="http://www.w3.org/2000/svg" xmlns:xlink="http://www.w3.org/1999/xlink" x="0px" y="0px"
	 viewBox="0 0 26.8 26.8" style="enable-background:new 0 0 26.8 26.8;" xml:space="preserve">
<style type="text/css">
	.st0{fill:#FFFFFF;}
</style>
<path class="st0" d="M13.4,18.3c-2.7,0-4.9-2.2-4.9-4.9s2.2-4.9,4.9-4.9c2.7,0,4.9,2.2,4.9,4.9S16.1,18.3,13.4,18.3 M13.4,6.5
	c-3.8,0-6.9,3.1-6.9,6.9c0,3.8,3.1,6.9,6.9,6.9c3.8,0,6.9-3.1,6.9-6.9C20.3,9.6,17.2,6.5,13.4,6.5"/>
<path class="st0" d="M22,6.2c0,0.8-0.6,1.4-1.4,1.4c-0.8,0-1.4-0.6-1.4-1.4c0-0.8,0.6-1.4,1.4-1.4C21.4,4.8,22,5.4,22,6.2"/>
<path class="st0" d="M24.2,26.8H2.7c-1.5,0-2.7-1.2-2.7-2.7V2.7C0,1.2,1.2,0,2.7,0h21.5c1.5,0,2.7,1.2,2.7,2.7v21.5
	C26.8,25.6,25.7,26.8,24.2,26.8 M2.7,2C2.3,2,2,2.3,2,2.7v21.5c0,0.4,0.3,0.6,0.6,0.6h21.5c0.4,0,0.6-0.3,0.6-0.6V2.7
	c0-0.4-0.3-0.6-0.6-0.6H2.7z"/>
</svg>
