<?xml version="1.0" encoding="utf-8"?>
<!-- Generator: Adobe Illustrator 19.2.1, SVG Export Plug-In . SVG Version: 6.00 Build 0)  -->
<svg version="1.1" id="Layer_1" xmlns="http://www.w3.org/2000/svg" xmlns:xlink="http://www.w3.org/1999/xlink" x="0px" y="0px"
	 viewBox="0 0 23.7 34" style="enable-background:new 0 0 23.7 34;" xml:space="preserve">
<style type="text/css">
	
		.st0{clip-path:url(#SVGID_2_);fill:none;stroke:#FFFFFF;stroke-width:2;stroke-linecap:round;stroke-linejoin:round;stroke-miterlimit:10;}
</style>
<g>
	<defs>
		<rect id="SVGID_1_" y="0" width="23.7" height="34"/>
	</defs>
	<clipPath id="SVGID_2_">
		<use xlink:href="#SVGID_1_"  style="overflow:visible;"/>
	</clipPath>
	<path class="st0" d="M11.9,1C6,1,1.3,5.6,1,11.3v0.6v0.3v0.3C1.1,20.2,11.9,33,11.9,33s9.8-11,10.8-19.9V13
		c0.1-0.5,0.1-0.8,0.1-1.1C22.7,5.8,17.8,1,11.9,1z M16.4,12.4c-0.2,2.2-2.1,4-4.5,4c-2.3,0-4.1-1.7-4.5-3.9c0-0.2-0.1-0.5-0.1-0.7
		c0.1-2.4,2.1-4.4,4.5-4.4c2.5,0,4.5,2.1,4.5,4.5V12.4z"/>
</g>
</svg>
