<?xml version="1.0" encoding="utf-8"?>
<!-- Generator: Adobe Illustrator 19.2.1, SVG Export Plug-In . SVG Version: 6.00 Build 0)  -->
<svg version="1.1" id="Layer_1" xmlns="http://www.w3.org/2000/svg" xmlns:xlink="http://www.w3.org/1999/xlink" x="0px" y="0px"
	 viewBox="0 0 26.8 26.8" style="enable-background:new 0 0 26.8 26.8;" xml:space="preserve">
<style type="text/css">
	.st0{fill:#FFFFFF;}
</style>
<path class="st0" d="M24.2,26.8H2.7c-1.5,0-2.7-1.2-2.7-2.7V2.7C0,1.2,1.2,0,2.7,0h21.5c1.5,0,2.7,1.2,2.7,2.7v21.5
	C26.8,25.6,25.7,26.8,24.2,26.8 M2.7,2C2.3,2,2,2.3,2,2.7v21.5c0,0.4,0.3,0.6,0.6,0.6h21.5c0.4,0,0.6-0.3,0.6-0.6V2.7
	c0-0.4-0.3-0.6-0.6-0.6H2.7z"/>
<path class="st0" d="M14.3,16.3h-1.7c-0.3,0-0.5-0.2-0.5-0.5v-0.6c0-0.3,0.2-0.5,0.5-0.5h1.7v-3.9c0-3.3,1.9-4.8,4.3-4.8
	c1.5,0,2.6,0.7,3.1,1.2c0.2,0.2,0.2,0.4,0.1,0.6l-0.4,0.7c-0.2,0.3-0.4,0.3-0.7,0c-0.4-0.3-1.2-0.8-2-0.8c-1.3,0-2.3,0.9-2.3,3v3.9
	h3.3c0.3,0,0.5,0.2,0.5,0.5v0.6c0,0.3-0.2,0.5-0.5,0.5h-3.3v9c0,0.3-0.3,0.5-0.5,0.5h-0.9c-0.3,0-0.5-0.3-0.5-0.5V16.3z"/>
</svg>
