<?xml version="1.0" encoding="utf-8"?>
<!-- Generator: Adobe Illustrator 19.2.1, SVG Export Plug-In . SVG Version: 6.00 Build 0)  -->
<svg version="1.1" id="Layer_1" xmlns="http://www.w3.org/2000/svg" xmlns:xlink="http://www.w3.org/1999/xlink" x="0px" y="0px"
	 viewBox="0 0 579.7 50.2" style="enable-background:new 0 0 579.7 50.2;" xml:space="preserve">
<style type="text/css">
	.st0{fill:#E42C42;}
</style>
<g>
	<path class="st0" d="M332.6,26.9v-18c0-2.6-0.4-4.2-1.2-5c-0.8-0.8-2.5-1.3-5.1-1.5V1h18.8c4.2,0,7.7,0.5,10.5,1.6
		c5.3,2,8,5.7,8,11.1c0,3.6-1.2,6.4-3.5,8.3c-2.4,1.9-5.6,3.2-9.6,3.8l15,18.5c0.9,1.1,1.8,2,2.8,2.5c0.9,0.5,2.1,0.8,3.6,1v1.4H360
		l-18.2-22.4C341.8,26.8,339.5,26.9,332.6,26.9 M349.8,22.5c3.8-1.7,5.8-4.7,5.8-9.2c0-4.3-1.7-7.3-5.2-8.8
		c-1.8-0.9-4.3-1.3-7.3-1.3c-2.1,0-3.3,0.2-3.8,0.5c-0.5,0.3-0.7,1-0.7,2.1v18.9C343.8,24.7,346.7,23.9,349.8,22.5"/>
	<polygon class="st0" points="457,6.4 456.7,6.1 457,6.4 	"/>
	<path class="st0" d="M31.7,38.4L14.5,1H0.2v1.3c1.2,0,5,0.2,7,1.8c2.4,1.9,3.4,5.8,4.3,7.8l17.2,37.2h1L48.2,6.5v33.9
		c0,3.1-0.4,5-1.1,5.8c-0.7,0.8-2.6,1.3-5.5,1.6v1.3H62v-1.3c-2.7-0.2-4.4-0.7-5.2-1.5c-0.8-0.7-1.2-2.4-1.2-5.1V8.9
		c0-2.6,0.4-4.3,1.2-5.1c0.8-0.8,2.5-1.3,5.2-1.5V1H48.2L31.7,38.4z"/>
	<path class="st0" d="M6.6,45.8c-0.9,1.1-3.6,1.7-6.6,2v1.3h17.1v-1.3c-2.6-0.3-5.5-0.8-6.2-1.6c-0.5-0.6-1-1.5-1.2-2.6H7.5
		C7.3,44.6,7,45.3,6.6,45.8"/>
	<path class="st0" d="M456.5,45.8c-0.9,1.1-3.6,1.7-6.6,2v1.3H467v-1.3c-2.6-0.3-5.5-0.8-6.2-1.6c-0.5-0.6-1-1.5-1.2-2.6h-2.2
		C457.1,44.6,456.9,45.3,456.5,45.8"/>
	<path class="st0" d="M332.9,45.8c-0.9,1.1-3.6,1.7-6.6,2v1.3h17.1v-1.3c-2.6-0.3-5.5-0.8-6.2-1.6c-0.5-0.6-0.9-1.5-1.2-2.6h-2.2
		C333.6,44.6,333.3,45.3,332.9,45.8"/>
	<path class="st0" d="M136.5,41.4L118.3,0.2h-1.4l-2.7,6.5l1.7,4.1l8.4,20h-16l-1.5,2.2h18.4l3.1,7.5c0.4,1,0.8,1.9,1,2.8
		c0.2,0.9,0.4,1.5,0.4,1.9c0,1.1-0.3,1.7-0.9,2c-0.6,0.3-2,0.5-4.1,0.7v1.3H143v-1.3c-1.7-0.2-2.9-0.7-3.6-1.3
		C138.6,45.9,137.7,44.2,136.5,41.4"/>
	<path class="st0" d="M97.6,45.7c-0.9,1.2-3,1.9-4.8,2.1v1.3h14.4v-1.3c-1.7-0.1-4-0.3-4.6-0.6c-1-0.5-1.5-1.3-1.5-2.5
		c0-0.3,0.1-0.7,0.1-1.1h-2.3C98.3,44.6,97.9,45.3,97.6,45.7"/>
	<path class="st0" d="M286.7,41.4L268.5,0.2h-1.4l-2.7,6.5l1.7,4.1l8.4,20h-16l-1.5,2.2h18.4l3.1,7.5c0.4,1,0.8,1.9,1,2.8
		c0.2,0.9,0.4,1.5,0.4,1.9c0,1.1-0.3,1.7-0.9,2c-0.6,0.3-2,0.5-4.1,0.7v1.3h18.5v-1.3c-1.7-0.2-2.9-0.7-3.6-1.3
		C288.8,45.9,287.9,44.2,286.7,41.4"/>
	<path class="st0" d="M247.7,45.7c-0.9,1.2-3,1.9-4.8,2.1v1.3h14.4v-1.3c-1.7-0.1-4-0.3-4.6-0.6c-1-0.5-1.5-1.3-1.5-2.5
		c0-0.3,0.1-0.7,0.1-1.1H249C248.5,44.6,248.1,45.3,247.7,45.7"/>
	<path class="st0" d="M179.1,6.9c1.8-2.2,4.8-4,9-4l1.3-1.9h-13.4l-1.5,12.4h1.9C177.3,9.2,179.1,6.9,179.1,6.9"/>
	<path class="st0" d="M210.9,43.4c-2,2-3.6,3.6-9.8,3.6h-18.9l32.3-45.2V1h-7.4l-34.2,47.3v0.8h41.1l1.8-12.8h-1.7
		C213.2,39.8,212.1,42.1,210.9,43.4"/>
	<path class="st0" d="M397.6,2.4c3,0.1,4.9,0.6,5.8,1.4c0.9,0.8,1.3,2.5,1.3,5.2v32.4c0,2.8-0.4,4.5-1.3,5.2
		c-0.9,0.7-2.8,1.1-5.8,1.3v1.3h21.5v-1.3c-3-0.2-4.9-0.7-5.8-1.3c-0.9-0.7-1.3-2.4-1.3-5.2V8.9c0-2.7,0.4-4.4,1.3-5.2
		c0.9-0.8,2.8-1.2,5.8-1.4V1h-21.5V2.4z"/>
	<path class="st0" d="M483.4,2.4c2.7,0.2,4.9,0.7,5.6,1.5c1.2,1.2,1.8,3.8,1.8,7.8v24.7L462.3,1h-12.4v1.3c1.5,0,2.6,0.2,3.4,0.5
		c0.8,0.3,1.7,1.1,2.7,2.3l0.6,0.7h0l0.1,0.1l35.7,44h0.8V11.7c0-3.8,0.5-6.3,1.4-7.3c0.9-1.1,3.2-1.7,5.9-2V1h-17.1V2.4z"/>
	<polygon class="st0" points="456.6,5.9 456.6,5.9 456.7,6.1 	"/>
	<path class="st0" d="M555.4,0c-13.4,0-24.3,11.2-24.3,25.1c0,13.9,10.9,25.1,24.3,25.1c13.4,0,24.3-11.2,24.3-25.1
		C579.7,11.2,568.8,0,555.4,0 M571,25.1c0,7.8-1.5,13.5-4.6,17.1c-1.4,1.6-2.9,2.8-4.5,3.6c-2,1.4-4.2,2.2-6.6,2.2
		c-2.2,0-4.4-0.7-6.3-2c-1.7-0.9-3.3-2.2-4.8-4c-3-3.7-4.5-9.3-4.5-17v0v0c0,0,0-0.1,0-0.1c0-7.6,1.5-13.2,4.5-16.8
		c1.3-1.6,2.7-2.8,4.3-3.7c2.1-1.5,4.4-2.3,6.8-2.3c2.7,0,5.3,1,7.5,2.8c1.2,0.8,2.4,1.7,3.5,3c3.1,3.5,4.6,9.2,4.6,17
		C571,25,571,25,571,25.1L571,25.1L571,25.1z"/>
</g>
</svg>
