<?xml version="1.0" encoding="utf-8"?>
<!-- Generator: Adobe Illustrator 19.2.1, SVG Export Plug-In . SVG Version: 6.00 Build 0)  -->
<svg version="1.1" id="Layer_1" xmlns="http://www.w3.org/2000/svg" xmlns:xlink="http://www.w3.org/1999/xlink" x="0px" y="0px"
	 viewBox="0 0 228.1 177.1" style="enable-background:new 0 0 228.1 177.1;" xml:space="preserve">
<style type="text/css">
	.st0{clip-path:url(#SVGID_2_);fill:#E52C42;}
</style>
<g>
	<defs>
		<rect id="SVGID_1_" width="228.1" height="177.1"/>
	</defs>
	<clipPath id="SVGID_2_">
		<use xlink:href="#SVGID_1_"  style="overflow:visible;"/>
	</clipPath>
	<path class="st0" d="M116.5,137.4L53.4,0H0.6v4.9C5,5,19,5.8,26.3,11.5c8.6,6.8,12.4,21.4,15.7,28.6l63.2,137h3.7l68.5-156.9v124.7
		c0,11.3-1.3,18.5-4,21.5c-2.7,3-9.4,4.9-20.2,5.8v5h74.9v-5c-9.9-0.9-16.4-2.7-19.2-5.4c-2.9-2.7-4.3-9-4.3-18.8V29
		c0-9.5,1.4-15.7,4.3-18.6c2.9-2.9,9.3-4.7,19.2-5.4V0h-50.8L116.5,137.4z"/>
	<path class="st0" d="M24.3,164.6c-3.1,3.9-13.2,6.4-24.3,7.5v5h62.9v-5c-9.7-1.1-20.1-3-22.9-5.9c-2-2.1-3.5-5.4-4.6-9.7h-8
		C26.7,160.1,25.7,162.9,24.3,164.6"/>
</g>
</svg>
